<svg xmlns="http://www.w3.org/2000/svg" width="13.771" height="17.702" viewBox="7.368 6.248 13.771 17.702"><path d="M15.404 19.087c-1.077-.083-1.53-.618-2.375-1.13-.465 2.436-1.032 4.772-2.714 5.993-.52-3.684.762-6.45 1.357-9.386-1.014-1.708.122-5.145 2.262-4.298 2.633 1.041-2.28 6.349 1.018 7.012 3.443.692 4.849-5.974 2.713-8.143-3.085-3.13-8.98-.071-8.255 4.41.177 1.096 1.309 1.429.452 2.94-1.974-.437-2.563-1.994-2.487-4.07.122-3.398 3.053-5.778 5.994-6.107 3.718-.416 7.208 1.365 7.69 4.863.542 3.948-1.679 8.223-5.655 7.916Z" fill="#051741" fill-rule="evenodd" data-name="Shape"/></svg>