<svg xmlns="http://www.w3.org/2000/svg" width="16.607" height="13.496" viewBox="7.178 8.614 16.607 13.496"><path d="M23.785 10.211c-.611.271-1.268.454-1.957.536a3.416 3.416 0 0 0 1.498-1.884 6.82 6.82 0 0 1-2.164.826 3.408 3.408 0 0 0-5.806 3.108 9.672 9.672 0 0 1-7.022-3.56 3.407 3.407 0 0 0 1.054 4.549 3.383 3.383 0 0 1-1.543-.427v.043a3.409 3.409 0 0 0 2.733 3.34 3.395 3.395 0 0 1-1.539.06 3.41 3.41 0 0 0 3.183 2.366 6.836 6.836 0 0 1-5.044 1.41A9.637 9.637 0 0 0 12.4 22.11c6.267 0 9.694-5.191 9.694-9.694 0-.147-.003-.295-.01-.44a6.91 6.91 0 0 0 1.7-1.764Z" fill="#051741" fill-rule="evenodd" data-name="Shape"/></svg>