<svg xmlns="http://www.w3.org/2000/svg" width="18.716" height="10.677" viewBox="4.558 9.873 18.716 10.677"><path d="M13.715 20.505h1.12s.337-.037.51-.223c.158-.17.153-.491.153-.491s-.022-1.501.675-1.722c.687-.218 1.569 1.45 2.504 2.092.707.486 1.244.38 1.244.38l2.5-.036s1.307-.08.687-1.108c-.051-.084-.361-.76-1.859-2.15-1.567-1.455-1.357-1.22.53-3.736 1.15-1.533 1.61-2.468 1.467-2.869-.137-.381-.983-.28-.983-.28l-2.814.017s-.209-.029-.363.064c-.152.09-.249.302-.249.302s-.445 1.186-1.04 2.194c-1.253 2.128-1.754 2.24-1.958 2.109-.477-.308-.358-1.238-.358-1.898 0-2.062.313-2.922-.609-3.144-.306-.074-.531-.123-1.313-.13-1.005-.011-1.854.002-2.336.238-.32.157-.567.506-.416.526.186.025.607.114.83.418.289.392.278 1.273.278 1.273s.166 2.428-.387 2.73c-.379.206-.9-.216-2.016-2.147-.573-.988-1.005-2.082-1.005-2.082s-.084-.204-.232-.313c-.18-.132-.433-.175-.433-.175l-2.674.018s-.401.011-.549.186c-.13.155-.01.476-.01.476s2.094 4.898 4.464 7.367c2.174 2.263 4.642 2.114 4.642 2.114Z" fill="#051741" fill-rule="evenodd" data-name="Shape"/></svg>